OpenSim_Sub03_EMGStiffKnee_GRF.mot
version=1
nRows=52
nColumns=19
inDegrees=no
endheader
time	lFx	lFy	lFz	lCOPx	lCOPy	lCOPz	rFx	rFy	rFz	rCOPx	rCOPy	rCOPz	lMx	lMy	lMz	rMx	rMy	rMz
56.97000000	37.40446989	570.83563098	55.23499743	0.89667478	0	-0.65710150	-43.72687083	326.92560501	-40.81451762	1.30072225	0	-0.34549730	0	-9.32388443	0	0	-0.98993495	-0.00000000
56.98000000	36.40638529	525.02953754	49.51724423	0.88946291	0	-0.65783912	-82.91556986	457.25848187	-54.58213118	1.29096928	0	-0.33656053	0	-8.70697363	0	0	-1.75504911	0
56.99000000	34.76699798	473.66054206	43.91375155	0.88227095	0	-0.65888741	-117.85139350	587.13034702	-66.37379851	1.28207336	0	-0.32979906	0	-8.10637372	0	0	-2.45000734	-0.00000000
57	32.18560295	416.58069142	37.83057117	0.87594392	0	-0.66074867	-141.64641173	693.87088563	-76.94472395	1.27617750	0	-0.32603503	0	-7.41673765	0	0	-2.87328768	-0.00000000
57.01000000	27.86668754	354.91033088	31.04720224	0.87172268	0	-0.66426132	-152.62576466	766.36992922	-85.76756367	1.27124249	0	-0.32425202	0	-6.61247206	0	0	-3.35415768	0
57.02000000	20.91250379	291.27966884	23.85003280	0.87017990	0	-0.66999466	-153.59692974	806.06910210	-91.35686336	1.26546269	0	-0.32337128	0	-5.79436408	0	0	-3.83344489	-0.00000000
57.03000000	11.22231575	229.18661077	16.82238885	0.86884967	0	-0.67572780	-148.65694391	823.39062181	-94.14824170	1.25820704	0	-0.32277048	0	-5.08804396	0	0	-4.10198297	0
57.04000000	-0.21015943	171.80091473	10.37830330	0.85716212	0	-0.67202885	-140.95446718	830.34857380	-95.93383909	1.24991844	0	-0.32225882	0	-4.50908153	0	0	-4.36788785	0
57.05000000	-11.56851340	121.48807544	4.77521949	0.81210030	0	-0.63828813	-131.39619165	833.29815592	-96.99807244	1.24128543	0	-0.32179178	0	-3.99543890	0	0	-4.63791992	0
57.06000000	-20.22864019	79.52123114	0.09562676	0.70154700	0	-0.54660136	-119.54770336	831.83134267	-96.67962651	1.23248074	0	-0.32131926	0	-3.48345176	0	0	-4.78397150	0
57.07000000	-23.43832966	46.35957688	-3.74068007	0.50940186	0	-0.38733391	-104.99084064	822.95060355	-95.14086640	1.22334967	0	-0.32081754	0	-2.79775525	0	0	-4.80959726	0
57.08000000	-20.50389503	22.24330331	-6.64662861	0.27635983	0	-0.20276452	-88.05811408	804.68219342	-92.92431971	1.21373106	0	-0.32029042	0	-1.74777111	0	0	-4.68050995	0.00000000
57.09000000	-15.09309523	7.39384160	-8.16519790	0.09149933	0	-0.06336183	-69.87384023	777.24614908	-90.06901486	1.20360208	0	-0.31974648	0	-0.69748796	0	0	-4.50900600	0
57.10000000	-10.99061975	0.74257291	-8.51835272	0.00092937	0	0.00236014	-52.25237696	742.93274284	-86.07871348	1.19322626	0	-0.31919732	0	-0.10173021	0	0	-4.25296459	0
57.11000000	-9.10565000	-0.63357889	-8.53308740	-0.02338061	0	0.01861376	-36.71490349	705.19263188	-80.73497268	1.18305595	0	-0.31869697	0	0.10187798	0	0	-3.91940538	0
57.12000000	-8.70673681	0.07223338	-8.41613984	-0.01910594	0	0.01439307	-23.40185608	667.82242682	-74.35431700	1.17321735	0	-0.31827856	0	0.10901211	0	0	-3.63877459	0
57.13000000	-8.92583902	0.99264779	-8.44196681	-0.00924656	0	0.00670186	-11.25764830	634.16130322	-67.49965234	1.16363648	0	-0.31796591	0	0.06107130	0	0	-3.47087527	0
57.14000000	-9.26479293	1.53667969	-8.59709322	-0.00242044	0	0.00161055	0.55433629	606.68677114	-60.80749992	1.15432761	0	-0.31776028	0	0.02051663	0	0	-3.34048306	0
57.15000000	-9.58138273	1.71946560	-8.75446990	0.00048598	0	-0.00046822	12.01794759	586.59638643	-54.76142540	1.14539770	0	-0.31758120	0	0.00044470	0	0	-3.21888334	0
57.16000000	-9.88430918	1.74845541	-8.97177734	0.00103035	0	-0.00080244	22.63674628	574.38627952	-50.04288005	1.13688791	0	-0.31730772	0	-0.00505194	0	0	-3.16953033	0
57.17000000	-10.17227491	1.70443492	-9.14925336	0.00070301	0	-0.00052384	31.79534242	570.25820128	-47.43785415	1.12857374	0	-0.31687886	0	-0.00419261	0	0	-3.15929291	0
57.18000000	-10.44488516	1.62968072	-9.29190175	0.00029538	0	-0.00021095	38.59721006	574.25831280	-47.20904060	1.12063166	0	-0.31625360	0	-0.00204982	0	0	-3.18143130	0
57.19000000	-10.69574184	1.64829646	-9.37929413	0.00005288	0	-0.00003203	42.05726439	586.02275585	-49.22380311	1.11335668	0	-0.31540434	0	-0.00054789	0	0	-3.30220476	0.00000000
57.20000000	-10.92511999	1.76222378	-9.42306450	-0.00003524	0	0.00002980	41.75705563	604.54701810	-53.19945318	1.10689578	0	-0.31442663	0	0.00009861	0	0	-3.47185124	-0.00000000
57.21000000	-11.14952909	1.90447725	-9.51757019	-0.00004237	0	0.00003248	38.12567632	628.34584477	-58.31196719	1.10113540	0	-0.31339049	0	0.00022404	0	0	-3.58729387	0
57.22000000	-11.36945921	1.94470208	-9.66522456	-0.00002489	0	0.00001835	32.30164225	655.73236812	-63.29087482	1.09593343	0	-0.31230609	0	0.00015472	0	0	-3.62417475	0
57.23000000	-11.57239776	1.84535161	-9.86395989	-0.00000890	0	0.00000623	25.58464518	684.68963520	-67.37532505	1.09114080	0	-0.31127616	0	0.00006573	0	0	-3.62501286	0
57.24000000	-11.74555205	1.76707024	-10.02039243	-0.00000062	0	0.00000019	19.03044872	713.18403706	-70.31065724	1.08645456	0	-0.31038766	0	0.00001222	0	0	-3.57547340	0.00000000
57.25000000	-11.87785940	1.81618765	-10.10266634	0.00000185	0	-0.00000149	13.38565443	739.73471157	-72.17121501	1.08167552	0	-0.30969715	0	-0.00000748	0	0	-3.48318426	0
57.26000000	-11.94742712	2.01289365	-10.13472736	0.00000165	0	-0.00000125	9.17784549	763.52984241	-73.23105525	1.07657074	0	-0.30919959	0	-0.00000925	0	0	-3.35283388	0
57.27000000	-11.97699676	2.22801210	-10.14910100	0.00000085	0	-0.00000062	6.43153909	784.06235917	-73.83606336	1.07111114	0	-0.30880874	0	-0.00000549	0	0	-3.17483122	0
57.28000000	-11.99563876	2.26372612	-10.18894679	0.00000025	0	-0.00000017	5.08846070	800.63486216	-74.29557242	1.06532771	0	-0.30842616	0	-0.00000199	0	0	-2.98953406	0
57.29000000	-12.02890678	2.16645938	-10.24473992	-0.00000002	0	0.00000003	5.12839289	812.36926233	-74.88113571	1.05935716	0	-0.30796564	0	-0.00000016	0	0	-2.87301274	0
57.30000000	-12.02142893	2.04399124	-10.23606744	-0.00000008	0	0.00000007	6.52012116	818.30928099	-75.74920139	1.05329657	0	-0.30736332	0	0.00000038	0	0	-2.83557226	0
57.31000000	-11.92553760	1.94389656	-10.12666650	-0.00000006	0	0.00000004	8.88038762	818.09058008	-76.98518543	1.04739666	0	-0.30655360	0	0.00000034	0	0	-2.84375138	0
57.32000000	-11.74939996	1.89965435	-9.99723156	-0.00000002	0	0.00000002	11.57316318	812.05770120	-78.51080828	1.04182999	0	-0.30550667	0	0.00000017	0	0	-2.87114774	-0.00000000
57.33000000	-11.53055829	1.92154656	-9.85717035	-0.00000001	0	0.00000000	14.15548792	801.07810487	-80.03651650	1.03650644	0	-0.30426126	0	0.00000009	0	0	-2.91827726	0.00000000
57.34000000	-11.28331908	1.93675280	-9.75014847	-0.00000002	0	0.00000001	16.77288691	786.56675529	-81.15036694	1.03126243	0	-0.30291679	0	0.00000018	0	0	-2.95648180	0
57.35000000	-10.99131790	1.90968351	-9.65271267	-0.00000006	0	0.00000003	19.56078598	770.35601134	-81.52859201	1.02616292	0	-0.30154046	0	0.00000039	0	0	-2.97545508	0
57.36000000	-10.64751823	1.84326909	-9.47794675	-0.00000011	0	0.00000006	22.37347368	753.83563454	-81.20685076	1.02117937	0	-0.30018065	0	0.00000054	0	0	-2.98342781	-0.00000000
57.37000000	-10.28070649	1.78163455	-9.22029972	-0.00000010	0	0.00000005	25.18166361	737.84882133	-80.56278425	1.01610312	0	-0.29890342	0	0.00000015	0	0	-2.93501215	0
57.38000000	-9.94728748	1.74649373	-8.94713011	0.00000012	0	-0.00000008	28.10196191	723.16198522	-79.89518091	1.01079293	0	-0.29772980	0	-0.00000161	0	0	-2.79285427	0.00000000
57.39000000	-9.63749157	1.74571274	-8.72216418	0.00000075	0	-0.00000044	31.20749679	710.38599451	-79.27530488	1.00534075	0	-0.29667470	0	-0.00000554	0	0	-2.58941765	0.00000000
57.40000000	-9.33527372	1.65834657	-8.55723940	0.00000182	0	-0.00000105	34.34269369	699.95582876	-78.84584099	0.99979600	0	-0.29576404	0	-0.00001083	0	0	-2.35089594	0.00000000
57.41000000	-9.04095556	1.55200537	-8.47258002	0.00000275	0	-0.00000152	37.27056068	692.55781615	-78.76613472	0.99416566	0	-0.29497583	0	-0.00001212	0	0	-2.04635862	0
57.42000000	-8.76170943	1.47539559	-8.42356037	0.00000150	0	-0.00000067	39.80810206	689.18551038	-79.00722339	0.98852818	0	-0.29426583	0	0.00000399	0	0	-1.69052123	0
57.43000000	-8.52481903	1.46142910	-8.37651902	-0.00000584	0	0.00000371	41.94471713	690.18365424	-79.56091631	0.98289204	0	-0.29361629	0	0.00005817	0	0	-1.33212769	0
57.44000000	-8.35539781	1.60283240	-8.33929610	-0.00002356	0	0.00001387	43.72295066	694.65169576	-80.59048008	0.97734863	0	-0.29301723	0	0.00016280	0	0	-0.95659047	0.00000000
57.45000000	-8.25947974	1.86044183	-8.27976122	-0.00004990	0	0.00002837	45.26826006	700.81032856	-82.17044415	0.97210463	0	-0.29246192	0	0.00027741	0	0	-0.58607504	0
57.46000000	-8.20634678	2.05139587	-8.23937786	-0.00006332	0	0.00003419	46.84739638	707.03219949	-84.10072092	0.96722998	0	-0.29193683	0	0.00023124	0	0	-0.27735519	0.00000000
57.47000000	-8.16978146	2.07944071	-8.24757821	-0.00000445	0	-0.00000299	48.80179398	712.35678412	-86.10730743	0.96240709	0	-0.29145496	0	-0.00034458	0	0	-0.01285312	-0.00000000
57.48000000	-8.16465059	2.04661514	-8.31454774	0.00022649	0	-0.00013876	51.24599714	716.66658226	-87.87922659	0.95752491	0	-0.29103495	0	-0.00193087	0	0	0.26060673	0.00000000
